<svg xmlns="http://www.w3.org/2000/svg" height="47.692" viewBox="0 0 200 189.621" class="styles__SvgContainer-sc-12dpq3v-0 cRqOXH" width="200">
  <g fill="#4180C9">
    <path d="M155.669 77.126h-27.15L97.595 184.491a2.321 2.38 0 002.232 3.072l25.547.107c40.837 0 55.078-52.523 56.366-74.546 1.378-24.25-11.74-35.998-26.071-35.998zm4.717 36.275c-.779 13.254-10.603 55.84-30.265 55.84h-6.499l21.1-73.716h5.87c5.676-.016 10.543 5.114 9.794 17.876zM213.068 1.858a1.378 1.413 0 00-1.333-1.812h-9.913l-7.098 24.987h-11.98l6.589-23.175A1.378 1.413 0 00188 .046h-9.929l-17.146 60.125a1.378 1.413 0 001.333 1.812h9.913l7.593-26.737h11.98l-7.129 24.925a1.378 1.413 0 001.333 1.812h9.914zM248.619 0H223.16l-.284 1.014-16.847 59.111a1.378 1.413 0 001.318 1.812h25.457l2.441-8.492a1.318 1.351 0 00-1.363-1.859H220.18l4.657-16.064h12.46l2.456-8.508a1.378 1.413 0 00-1.333-1.812h-10.677l4.312-14.958h15.455l2.396-8.493A1.393 1.428 0 00248.619 0zm-79.907 10.305l2.426-8.493A1.393 1.428 0 00169.79 0h-28.917l-2.35 8.493a1.393 1.428 0 001.347 1.812h7.592l-14.211 49.82a1.393 1.428 0 001.333 1.812h9.913l14.78-51.632zm56.576 66.821h-17.97L176.574 184.63a2.306 2.365 0 002.231 3.071h17.97L227.52 80.198a2.321 2.38 0 00-2.231-3.072zm146.515 3.026a2.291 2.35 0 00-2.2-3.072h-17.97l-12.715 44.537h-21.37l11.861-41.542a2.306 2.365 0 00-2.216-3.072h-17.97l-30.774 107.504a2.306 2.365 0 002.216 3.071h17.97l13.598-47.716h21.324l-12.669 44.752a2.291 2.35 0 002.217 3.072h17.97zm62.357-3.026h-45.6L357.773 184.63a2.306 2.365 0 002.216 3.071h45.584l4.343-15.357a2.306 2.365 0 00-2.216-3.072h-24.604l8.356-28.611h21.713l4.493-15.358a2.306 2.365 0 00-2.216-3.071h-18.794l7.727-26.677h27.659l4.328-15.357a2.291 2.35 0 00-2.202-3.072zm-178.698 29.978a15.2 15.588 0 0114.062-13.253A26.64 27.321 0 01281.309 96a3.384 3.47 0 004.628-1.981l4.282-14.913a45.674 46.84 0 00-17.64-3.808c-19.004 0-38.127 14.559-41.226 34.431-2.052 13.254 6.17 22.73 12.07 29.856 4.642 5.467 8.4 10.274 7.487 16.402-1.498 9.214-8.52 13.345-15.335 13.929-5.136.445-8.28 0-14.18-2.565a3.175 3.256 0 00-4.703 2.058l-4.657 16.295a57.923 59.403 0 0020.65 3.916c20.83 0 38.935-15.711 42.125-35.922 2.082-13.422-6.065-23.39-11.98-30.515-4.507-5.468-8.266-10.275-7.368-16.08zm207.375 0a15.2 15.588 0 0114.061-13.253A26.64 27.321 0 01488.684 96a3.384 3.47 0 004.627-1.981l4.283-14.913a45.674 46.84 0 00-17.64-3.808c-19.004 0-38.127 14.559-41.227 34.431-2.052 13.254 6.17 22.73 12.07 29.856 4.642 5.467 8.4 10.274 7.487 16.402-1.497 9.214-8.535 13.345-15.334 13.929-5.137.445-8.281 0-14.182-2.565a3.19 3.271 0 00-4.717 2.058l-4.642 16.295a57.923 59.403 0 0020.65 3.916c20.83 0 38.936-15.711 42.125-35.922 2.082-13.422-5.99-23.39-11.98-30.515-4.507-5.468-8.266-10.275-7.367-16.08z"/>
    <g style="line-height:1.25;-inkscape-font-specification:OpenSymbol;font-variant-ligatures:normal;font-variant-caps:normal;font-variant-numeric:normal;font-feature-settings:normal;text-align:start" aria-label="BAN" font-weight="700" font-size="236.077" font-family="OliJo" letter-spacing="-18.089" word-spacing="0" stroke-width="7.378">
      <path style="line-height:12;-inkscape-font-specification:'OliJo, Bold';font-variant-ligatures:normal;font-variant-caps:normal;font-variant-numeric:normal;font-feature-settings:normal;text-align:start" d="M-297.593 183.94l51.592-.506q9.231 0 15.986-.507 6.754-.507 12.211-1.775 5.678-1.268 10.497-3.297 4.9-2.282 10.341-5.578 10.663-6.593 18.715-16.736t11.831-22.06q5.286-15.975.912-27.132-4.154-11.157-16.612-16.229 14.216-5.325 24.268-16.228 10.272-10.904 14.877-26.118 3.377-10.65 2.536-19.778-.622-9.129-5.725-15.214-2.552-3.043-5.865-5.072-3.093-2.028-7.607-3.043-4.213-1.267-10.287-1.521-5.993-.507-14.126-.507l-56.127.253zm55.377-25.61h-3.297l17.21-54.263h3.736q10.99 0 14.034 6.339 3.125 6.085-1.298 20.032-5.125 15.468-11.97 21.807-6.546 6.085-18.415 6.085zm23.852-79.367h-1.979l16.325-51.474h3.297q10.99 0 13.616 5.578 2.627 5.579-1.877 19.779-4.583 14.453-11.268 20.285-6.466 5.832-18.114 5.832z"/>
      <path style="line-height:12;-inkscape-font-specification:'OliJo, Bold';font-variant-ligatures:normal;font-variant-caps:normal;font-variant-numeric:normal;font-feature-settings:normal;text-align:start" d="M-160.58 183.94l32.69-62.884h32.31l-7.195 62.885h47.694L-42.34 2.385h-46.596l-106.152 181.556zm67.204-86.466h-21.54l26.912-50.207-.83 6.086q-.532 5.832-1.427 14.2-.815 8.114-1.71 16.482-.896 8.367-1.405 13.439z"/>
      <path style="line-height:12;-inkscape-font-specification:'OliJo, Bold';font-variant-ligatures:normal;font-variant-caps:normal;font-variant-numeric:normal;font-feature-settings:normal;text-align:start" d="M-31.04 183.94L6.191 66.539 12.2 183.434h46.595L116.052 2.892H89.457L54.476 113.195 47.916 2.892H-.218l-57.417 181.049z"/>
    </g>
  </g>
</svg>
